<mxfile host="app.diagrams.net" modified="2023-11-11T19:46:29.207Z" agent="Mozilla/5.0 (Windows NT 10.0; Win64; x64; rv:109.0) Gecko/20100101 Firefox/119.0" etag="aYoXz3xrnWy3uHr98OFR" version="22.1.0" type="device">
  <diagram name="Page-1" id="nbRC-t2o00NmfP_tzlYT">
    <mxGraphModel dx="1419" dy="771" grid="1" gridSize="10" guides="1" tooltips="1" connect="1" arrows="1" fold="1" page="1" pageScale="1" pageWidth="850" pageHeight="1100" math="0" shadow="0">
      <root>
        <mxCell id="0" />
        <mxCell id="1" parent="0" />
        <mxCell id="EiPbIUe8c82zqwenVdA4-1" value="users" style="rounded=0;whiteSpace=wrap;html=1;" parent="1" vertex="1">
          <mxGeometry x="150" y="330" width="100" height="50" as="geometry" />
        </mxCell>
        <mxCell id="EiPbIUe8c82zqwenVdA4-2" value="first name" style="ellipse;whiteSpace=wrap;html=1;" parent="1" vertex="1">
          <mxGeometry x="20" y="220" width="90" height="60" as="geometry" />
        </mxCell>
        <mxCell id="EiPbIUe8c82zqwenVdA4-3" value="last name" style="ellipse;whiteSpace=wrap;html=1;" parent="1" vertex="1">
          <mxGeometry x="20" y="290" width="90" height="60" as="geometry" />
        </mxCell>
        <mxCell id="EiPbIUe8c82zqwenVdA4-4" value="job title" style="ellipse;whiteSpace=wrap;html=1;" parent="1" vertex="1">
          <mxGeometry x="20" y="360" width="90" height="60" as="geometry" />
        </mxCell>
        <mxCell id="EiPbIUe8c82zqwenVdA4-5" value="admin" style="ellipse;whiteSpace=wrap;html=1;" parent="1" vertex="1">
          <mxGeometry x="20" y="430" width="90" height="60" as="geometry" />
        </mxCell>
        <mxCell id="EiPbIUe8c82zqwenVdA4-6" value="" style="endArrow=none;html=1;rounded=0;" parent="1" source="EiPbIUe8c82zqwenVdA4-1" target="EiPbIUe8c82zqwenVdA4-5" edge="1">
          <mxGeometry width="50" height="50" relative="1" as="geometry">
            <mxPoint x="220" y="380" as="sourcePoint" />
            <mxPoint x="270" y="330" as="targetPoint" />
          </mxGeometry>
        </mxCell>
        <mxCell id="EiPbIUe8c82zqwenVdA4-7" value="" style="endArrow=none;html=1;rounded=0;" parent="1" source="EiPbIUe8c82zqwenVdA4-1" target="EiPbIUe8c82zqwenVdA4-4" edge="1">
          <mxGeometry width="50" height="50" relative="1" as="geometry">
            <mxPoint x="220" y="380" as="sourcePoint" />
            <mxPoint x="270" y="330" as="targetPoint" />
          </mxGeometry>
        </mxCell>
        <mxCell id="EiPbIUe8c82zqwenVdA4-8" value="" style="endArrow=none;html=1;rounded=0;" parent="1" source="EiPbIUe8c82zqwenVdA4-1" target="EiPbIUe8c82zqwenVdA4-3" edge="1">
          <mxGeometry width="50" height="50" relative="1" as="geometry">
            <mxPoint x="220" y="380" as="sourcePoint" />
            <mxPoint x="270" y="330" as="targetPoint" />
          </mxGeometry>
        </mxCell>
        <mxCell id="EiPbIUe8c82zqwenVdA4-9" value="" style="endArrow=none;html=1;rounded=0;" parent="1" source="EiPbIUe8c82zqwenVdA4-1" target="EiPbIUe8c82zqwenVdA4-2" edge="1">
          <mxGeometry width="50" height="50" relative="1" as="geometry">
            <mxPoint x="220" y="380" as="sourcePoint" />
            <mxPoint x="270" y="330" as="targetPoint" />
          </mxGeometry>
        </mxCell>
        <mxCell id="EiPbIUe8c82zqwenVdA4-10" value="orders" style="rounded=0;whiteSpace=wrap;html=1;" parent="1" vertex="1">
          <mxGeometry x="560" y="320" width="100" height="50" as="geometry" />
        </mxCell>
        <mxCell id="EiPbIUe8c82zqwenVdA4-11" value="item link" style="ellipse;whiteSpace=wrap;html=1;" parent="1" vertex="1">
          <mxGeometry x="630" y="720" width="90" height="60" as="geometry" />
        </mxCell>
        <mxCell id="EiPbIUe8c82zqwenVdA4-12" value="&lt;div&gt;quantity&lt;/div&gt;" style="ellipse;whiteSpace=wrap;html=1;" parent="1" vertex="1">
          <mxGeometry x="720" y="270" width="90" height="60" as="geometry" />
        </mxCell>
        <mxCell id="EiPbIUe8c82zqwenVdA4-13" value="&lt;div&gt;user&lt;br&gt;&lt;/div&gt;&lt;div&gt;id&lt;br&gt;&lt;/div&gt;" style="ellipse;whiteSpace=wrap;html=1;" parent="1" vertex="1">
          <mxGeometry x="720" y="350" width="90" height="60" as="geometry" />
        </mxCell>
        <mxCell id="EiPbIUe8c82zqwenVdA4-14" value="" style="endArrow=none;html=1;rounded=0;" parent="1" source="EiPbIUe8c82zqwenVdA4-10" target="EiPbIUe8c82zqwenVdA4-13" edge="1">
          <mxGeometry width="50" height="50" relative="1" as="geometry">
            <mxPoint x="220" y="380" as="sourcePoint" />
            <mxPoint x="270" y="330" as="targetPoint" />
          </mxGeometry>
        </mxCell>
        <mxCell id="EiPbIUe8c82zqwenVdA4-15" value="" style="endArrow=none;html=1;rounded=0;" parent="1" source="EiPbIUe8c82zqwenVdA4-10" target="EiPbIUe8c82zqwenVdA4-12" edge="1">
          <mxGeometry width="50" height="50" relative="1" as="geometry">
            <mxPoint x="220" y="380" as="sourcePoint" />
            <mxPoint x="270" y="330" as="targetPoint" />
          </mxGeometry>
        </mxCell>
        <mxCell id="EiPbIUe8c82zqwenVdA4-16" value="" style="endArrow=none;html=1;rounded=0;" parent="1" source="EiPbIUe8c82zqwenVdA4-39" target="EiPbIUe8c82zqwenVdA4-11" edge="1">
          <mxGeometry width="50" height="50" relative="1" as="geometry">
            <mxPoint x="290" y="380" as="sourcePoint" />
            <mxPoint x="340" y="330" as="targetPoint" />
          </mxGeometry>
        </mxCell>
        <mxCell id="EiPbIUe8c82zqwenVdA4-17" value="&lt;div&gt;purchase&lt;/div&gt;&lt;div&gt;order&lt;br&gt;&lt;/div&gt;" style="ellipse;whiteSpace=wrap;html=1;" parent="1" vertex="1">
          <mxGeometry x="210" y="1030" width="90" height="60" as="geometry" />
        </mxCell>
        <mxCell id="EiPbIUe8c82zqwenVdA4-18" value="" style="endArrow=none;html=1;rounded=0;" parent="1" source="EiPbIUe8c82zqwenVdA4-17" edge="1" target="-qcxalIV3YjbqEUlBUTX-5">
          <mxGeometry width="50" height="50" relative="1" as="geometry">
            <mxPoint x="140" y="290" as="sourcePoint" />
            <mxPoint x="55" y="950" as="targetPoint" />
          </mxGeometry>
        </mxCell>
        <mxCell id="EiPbIUe8c82zqwenVdA4-19" value="projects" style="rounded=0;whiteSpace=wrap;html=1;" parent="1" vertex="1">
          <mxGeometry x="445" y="110" width="100" height="50" as="geometry" />
        </mxCell>
        <mxCell id="EiPbIUe8c82zqwenVdA4-20" value="name" style="ellipse;whiteSpace=wrap;html=1;" parent="1" vertex="1">
          <mxGeometry x="350" y="20" width="90" height="60" as="geometry" />
        </mxCell>
        <mxCell id="EiPbIUe8c82zqwenVdA4-21" value="&lt;div&gt;project&lt;/div&gt;&lt;div&gt;id&lt;br&gt;&lt;/div&gt;" style="ellipse;whiteSpace=wrap;html=1;" parent="1" vertex="1">
          <mxGeometry x="730" y="720" width="90" height="60" as="geometry" />
        </mxCell>
        <mxCell id="EiPbIUe8c82zqwenVdA4-22" value="" style="endArrow=none;html=1;rounded=0;" parent="1" source="EiPbIUe8c82zqwenVdA4-19" target="EiPbIUe8c82zqwenVdA4-20" edge="1">
          <mxGeometry width="50" height="50" relative="1" as="geometry">
            <mxPoint x="368" y="375" as="sourcePoint" />
            <mxPoint x="288" y="286" as="targetPoint" />
          </mxGeometry>
        </mxCell>
        <mxCell id="EiPbIUe8c82zqwenVdA4-23" value="" style="endArrow=none;html=1;rounded=0;" parent="1" source="EiPbIUe8c82zqwenVdA4-21" target="EiPbIUe8c82zqwenVdA4-39" edge="1">
          <mxGeometry width="50" height="50" relative="1" as="geometry">
            <mxPoint x="188" y="385" as="sourcePoint" />
            <mxPoint x="108" y="296" as="targetPoint" />
          </mxGeometry>
        </mxCell>
        <mxCell id="EiPbIUe8c82zqwenVdA4-24" value="description" style="ellipse;whiteSpace=wrap;html=1;" parent="1" vertex="1">
          <mxGeometry x="330" y="495" width="90" height="60" as="geometry" />
        </mxCell>
        <mxCell id="EiPbIUe8c82zqwenVdA4-25" value="" style="endArrow=none;html=1;rounded=0;" parent="1" source="EiPbIUe8c82zqwenVdA4-34" target="EiPbIUe8c82zqwenVdA4-10" edge="1">
          <mxGeometry width="50" height="50" relative="1" as="geometry">
            <mxPoint x="178" y="375" as="sourcePoint" />
            <mxPoint x="98" y="286" as="targetPoint" />
          </mxGeometry>
        </mxCell>
        <mxCell id="EiPbIUe8c82zqwenVdA4-26" value="status" style="ellipse;whiteSpace=wrap;html=1;" parent="1" vertex="1">
          <mxGeometry x="720" y="415" width="90" height="60" as="geometry" />
        </mxCell>
        <mxCell id="EiPbIUe8c82zqwenVdA4-27" value="" style="endArrow=none;html=1;rounded=0;" parent="1" source="EiPbIUe8c82zqwenVdA4-26" target="EiPbIUe8c82zqwenVdA4-10" edge="1">
          <mxGeometry width="50" height="50" relative="1" as="geometry">
            <mxPoint x="720" y="555" as="sourcePoint" />
            <mxPoint x="605" y="440" as="targetPoint" />
          </mxGeometry>
        </mxCell>
        <mxCell id="EiPbIUe8c82zqwenVdA4-28" value="id" style="ellipse;whiteSpace=wrap;html=1;" parent="1" vertex="1">
          <mxGeometry x="520" y="200" width="90" height="60" as="geometry" />
        </mxCell>
        <mxCell id="EiPbIUe8c82zqwenVdA4-29" value="&lt;div&gt;order&lt;/div&gt;&lt;div&gt;date&lt;/div&gt;" style="ellipse;whiteSpace=wrap;html=1;" parent="1" vertex="1">
          <mxGeometry x="620" y="200" width="90" height="60" as="geometry" />
        </mxCell>
        <mxCell id="EiPbIUe8c82zqwenVdA4-30" value="&lt;div&gt;recieve&lt;/div&gt;&lt;div&gt;date&lt;/div&gt;" style="ellipse;whiteSpace=wrap;html=1;" parent="1" vertex="1">
          <mxGeometry x="720" y="200" width="90" height="60" as="geometry" />
        </mxCell>
        <mxCell id="EiPbIUe8c82zqwenVdA4-31" value="" style="endArrow=none;html=1;rounded=0;" parent="1" source="EiPbIUe8c82zqwenVdA4-10" target="EiPbIUe8c82zqwenVdA4-29" edge="1">
          <mxGeometry width="50" height="50" relative="1" as="geometry">
            <mxPoint x="623" y="340" as="sourcePoint" />
            <mxPoint x="660" y="268" as="targetPoint" />
          </mxGeometry>
        </mxCell>
        <mxCell id="EiPbIUe8c82zqwenVdA4-32" value="" style="endArrow=none;html=1;rounded=0;" parent="1" source="EiPbIUe8c82zqwenVdA4-10" target="EiPbIUe8c82zqwenVdA4-30" edge="1">
          <mxGeometry width="50" height="50" relative="1" as="geometry">
            <mxPoint x="633" y="350" as="sourcePoint" />
            <mxPoint x="670" y="278" as="targetPoint" />
          </mxGeometry>
        </mxCell>
        <mxCell id="EiPbIUe8c82zqwenVdA4-33" value="" style="endArrow=none;html=1;rounded=0;" parent="1" source="EiPbIUe8c82zqwenVdA4-10" target="EiPbIUe8c82zqwenVdA4-28" edge="1">
          <mxGeometry width="50" height="50" relative="1" as="geometry">
            <mxPoint x="643" y="360" as="sourcePoint" />
            <mxPoint x="680" y="288" as="targetPoint" />
          </mxGeometry>
        </mxCell>
        <mxCell id="EiPbIUe8c82zqwenVdA4-34" value="vendor" style="ellipse;whiteSpace=wrap;html=1;" parent="1" vertex="1">
          <mxGeometry x="620" y="415" width="90" height="60" as="geometry" />
        </mxCell>
        <mxCell id="EiPbIUe8c82zqwenVdA4-35" value="&lt;div&gt;logistics&lt;/div&gt;" style="rounded=0;whiteSpace=wrap;html=1;" parent="1" vertex="1">
          <mxGeometry x="170" y="640" width="100" height="50" as="geometry" />
        </mxCell>
        <mxCell id="EiPbIUe8c82zqwenVdA4-36" value="from" style="ellipse;whiteSpace=wrap;html=1;" parent="1" vertex="1">
          <mxGeometry x="20" y="720" width="90" height="60" as="geometry" />
        </mxCell>
        <mxCell id="EiPbIUe8c82zqwenVdA4-37" value="id" style="ellipse;whiteSpace=wrap;html=1;" parent="1" vertex="1">
          <mxGeometry x="20" y="580" width="90" height="60" as="geometry" />
        </mxCell>
        <mxCell id="EiPbIUe8c82zqwenVdA4-38" value="destination" style="ellipse;whiteSpace=wrap;html=1;" parent="1" vertex="1">
          <mxGeometry x="20" y="790" width="90" height="60" as="geometry" />
        </mxCell>
        <mxCell id="EiPbIUe8c82zqwenVdA4-39" value="items" style="rounded=0;whiteSpace=wrap;html=1;" parent="1" vertex="1">
          <mxGeometry x="560" y="640" width="100" height="50" as="geometry" />
        </mxCell>
        <mxCell id="EiPbIUe8c82zqwenVdA4-40" value="&lt;div&gt;order&lt;/div&gt;&lt;div&gt;id&lt;br&gt;&lt;/div&gt;" style="ellipse;whiteSpace=wrap;html=1;" parent="1" vertex="1">
          <mxGeometry x="530" y="720" width="90" height="60" as="geometry" />
        </mxCell>
        <mxCell id="EiPbIUe8c82zqwenVdA4-41" value="datetime" style="ellipse;whiteSpace=wrap;html=1;" parent="1" vertex="1">
          <mxGeometry x="20" y="650" width="90" height="60" as="geometry" />
        </mxCell>
        <mxCell id="EiPbIUe8c82zqwenVdA4-43" value="" style="endArrow=none;html=1;rounded=0;" parent="1" source="EiPbIUe8c82zqwenVdA4-44" target="EiPbIUe8c82zqwenVdA4-35" edge="1">
          <mxGeometry width="50" height="50" relative="1" as="geometry">
            <mxPoint x="220" y="750" as="sourcePoint" />
            <mxPoint x="490" y="740" as="targetPoint" />
            <Array as="points" />
          </mxGeometry>
        </mxCell>
        <mxCell id="EiPbIUe8c82zqwenVdA4-44" value="moves" style="rhombus;whiteSpace=wrap;html=1;" parent="1" vertex="1">
          <mxGeometry x="365" y="635" width="60" height="60" as="geometry" />
        </mxCell>
        <mxCell id="EiPbIUe8c82zqwenVdA4-45" value="" style="endArrow=none;html=1;rounded=0;" parent="1" source="EiPbIUe8c82zqwenVdA4-39" target="EiPbIUe8c82zqwenVdA4-44" edge="1">
          <mxGeometry width="50" height="50" relative="1" as="geometry">
            <mxPoint x="440" y="790" as="sourcePoint" />
            <mxPoint x="490" y="740" as="targetPoint" />
          </mxGeometry>
        </mxCell>
        <mxCell id="EiPbIUe8c82zqwenVdA4-46" value="name" style="ellipse;whiteSpace=wrap;html=1;" parent="1" vertex="1">
          <mxGeometry x="430" y="720" width="90" height="60" as="geometry" />
        </mxCell>
        <mxCell id="EiPbIUe8c82zqwenVdA4-47" value="comment" style="rounded=0;whiteSpace=wrap;html=1;" parent="1" vertex="1">
          <mxGeometry x="320" y="415" width="100" height="50" as="geometry" />
        </mxCell>
        <mxCell id="EiPbIUe8c82zqwenVdA4-48" value="" style="endArrow=none;html=1;rounded=0;" parent="1" source="EiPbIUe8c82zqwenVdA4-35" target="EiPbIUe8c82zqwenVdA4-37" edge="1">
          <mxGeometry width="50" height="50" relative="1" as="geometry">
            <mxPoint x="440" y="550" as="sourcePoint" />
            <mxPoint x="490" y="500" as="targetPoint" />
          </mxGeometry>
        </mxCell>
        <mxCell id="EiPbIUe8c82zqwenVdA4-49" value="" style="endArrow=none;html=1;rounded=0;" parent="1" source="EiPbIUe8c82zqwenVdA4-38" target="EiPbIUe8c82zqwenVdA4-35" edge="1">
          <mxGeometry width="50" height="50" relative="1" as="geometry">
            <mxPoint x="440" y="550" as="sourcePoint" />
            <mxPoint x="490" y="500" as="targetPoint" />
          </mxGeometry>
        </mxCell>
        <mxCell id="EiPbIUe8c82zqwenVdA4-50" value="" style="endArrow=none;html=1;rounded=0;" parent="1" source="EiPbIUe8c82zqwenVdA4-36" target="EiPbIUe8c82zqwenVdA4-35" edge="1">
          <mxGeometry width="50" height="50" relative="1" as="geometry">
            <mxPoint x="440" y="550" as="sourcePoint" />
            <mxPoint x="490" y="500" as="targetPoint" />
          </mxGeometry>
        </mxCell>
        <mxCell id="EiPbIUe8c82zqwenVdA4-51" value="" style="endArrow=none;html=1;rounded=0;" parent="1" source="EiPbIUe8c82zqwenVdA4-41" target="EiPbIUe8c82zqwenVdA4-35" edge="1">
          <mxGeometry width="50" height="50" relative="1" as="geometry">
            <mxPoint x="440" y="550" as="sourcePoint" />
            <mxPoint x="490" y="500" as="targetPoint" />
          </mxGeometry>
        </mxCell>
        <mxCell id="EiPbIUe8c82zqwenVdA4-52" value="" style="endArrow=none;html=1;rounded=0;" parent="1" source="EiPbIUe8c82zqwenVdA4-40" target="EiPbIUe8c82zqwenVdA4-39" edge="1">
          <mxGeometry width="50" height="50" relative="1" as="geometry">
            <mxPoint x="510" y="970" as="sourcePoint" />
            <mxPoint x="560" y="920" as="targetPoint" />
          </mxGeometry>
        </mxCell>
        <mxCell id="EiPbIUe8c82zqwenVdA4-53" value="" style="endArrow=none;html=1;rounded=0;" parent="1" source="EiPbIUe8c82zqwenVdA4-46" target="EiPbIUe8c82zqwenVdA4-39" edge="1">
          <mxGeometry width="50" height="50" relative="1" as="geometry">
            <mxPoint x="510" y="970" as="sourcePoint" />
            <mxPoint x="560" y="920" as="targetPoint" />
          </mxGeometry>
        </mxCell>
        <mxCell id="EiPbIUe8c82zqwenVdA4-54" value="&lt;div&gt;user&lt;br&gt;&lt;/div&gt;&lt;div&gt;id&lt;br&gt;&lt;/div&gt;" style="ellipse;whiteSpace=wrap;html=1;" parent="1" vertex="1">
          <mxGeometry x="230" y="495" width="90" height="60" as="geometry" />
        </mxCell>
        <mxCell id="EiPbIUe8c82zqwenVdA4-55" value="" style="endArrow=none;html=1;rounded=0;" parent="1" source="EiPbIUe8c82zqwenVdA4-54" target="EiPbIUe8c82zqwenVdA4-47" edge="1">
          <mxGeometry width="50" height="50" relative="1" as="geometry">
            <mxPoint x="650" y="225" as="sourcePoint" />
            <mxPoint x="505.0943396226414" y="465" as="targetPoint" />
          </mxGeometry>
        </mxCell>
        <mxCell id="EiPbIUe8c82zqwenVdA4-56" value="contains" style="rhombus;whiteSpace=wrap;html=1;" parent="1" vertex="1">
          <mxGeometry x="580" y="475" width="60" height="60" as="geometry" />
        </mxCell>
        <mxCell id="EiPbIUe8c82zqwenVdA4-57" value="" style="endArrow=none;html=1;rounded=0;" parent="1" source="EiPbIUe8c82zqwenVdA4-39" target="EiPbIUe8c82zqwenVdA4-56" edge="1">
          <mxGeometry width="50" height="50" relative="1" as="geometry">
            <mxPoint x="440" y="580" as="sourcePoint" />
            <mxPoint x="490" y="530" as="targetPoint" />
          </mxGeometry>
        </mxCell>
        <mxCell id="EiPbIUe8c82zqwenVdA4-58" value="" style="endArrow=none;html=1;rounded=0;" parent="1" source="EiPbIUe8c82zqwenVdA4-56" target="EiPbIUe8c82zqwenVdA4-10" edge="1">
          <mxGeometry width="50" height="50" relative="1" as="geometry">
            <mxPoint x="440" y="580" as="sourcePoint" />
            <mxPoint x="490" y="530" as="targetPoint" />
          </mxGeometry>
        </mxCell>
        <mxCell id="EiPbIUe8c82zqwenVdA4-59" value="" style="endArrow=none;html=1;rounded=0;" parent="1" source="EiPbIUe8c82zqwenVdA4-24" target="EiPbIUe8c82zqwenVdA4-47" edge="1">
          <mxGeometry width="50" height="50" relative="1" as="geometry">
            <mxPoint x="580" y="315" as="sourcePoint" />
            <mxPoint x="630" y="265" as="targetPoint" />
          </mxGeometry>
        </mxCell>
        <mxCell id="EiPbIUe8c82zqwenVdA4-60" value="contains" style="rhombus;whiteSpace=wrap;html=1;" parent="1" vertex="1">
          <mxGeometry x="465" y="240" width="60" height="60" as="geometry" />
        </mxCell>
        <mxCell id="XnG07Q0Lxh_-YjqikNLF-1" value="tasks" style="rounded=0;whiteSpace=wrap;html=1;" parent="1" vertex="1">
          <mxGeometry x="150" y="60" width="100" height="50" as="geometry" />
        </mxCell>
        <mxCell id="XnG07Q0Lxh_-YjqikNLF-2" value="name" style="ellipse;whiteSpace=wrap;html=1;" parent="1" vertex="1">
          <mxGeometry x="20" y="20" width="90" height="60" as="geometry" />
        </mxCell>
        <mxCell id="XnG07Q0Lxh_-YjqikNLF-3" value="" style="endArrow=none;html=1;rounded=0;" parent="1" source="XnG07Q0Lxh_-YjqikNLF-1" target="XnG07Q0Lxh_-YjqikNLF-2" edge="1">
          <mxGeometry width="50" height="50" relative="1" as="geometry">
            <mxPoint x="108" y="335" as="sourcePoint" />
            <mxPoint x="28" y="246" as="targetPoint" />
          </mxGeometry>
        </mxCell>
        <mxCell id="XnG07Q0Lxh_-YjqikNLF-4" value="date" style="ellipse;whiteSpace=wrap;html=1;" parent="1" vertex="1">
          <mxGeometry x="20" y="90" width="90" height="60" as="geometry" />
        </mxCell>
        <mxCell id="XnG07Q0Lxh_-YjqikNLF-5" value="" style="endArrow=none;html=1;rounded=0;" parent="1" source="XnG07Q0Lxh_-YjqikNLF-1" target="XnG07Q0Lxh_-YjqikNLF-4" edge="1">
          <mxGeometry width="50" height="50" relative="1" as="geometry">
            <mxPoint x="160" y="95" as="sourcePoint" />
            <mxPoint x="113" y="76" as="targetPoint" />
          </mxGeometry>
        </mxCell>
        <mxCell id="XnG07Q0Lxh_-YjqikNLF-6" value="has" style="rhombus;whiteSpace=wrap;html=1;" parent="1" vertex="1">
          <mxGeometry x="305" y="75" width="60" height="60" as="geometry" />
        </mxCell>
        <mxCell id="XnG07Q0Lxh_-YjqikNLF-7" value="" style="endArrow=none;html=1;rounded=0;" parent="1" source="XnG07Q0Lxh_-YjqikNLF-6" target="EiPbIUe8c82zqwenVdA4-19" edge="1">
          <mxGeometry width="50" height="50" relative="1" as="geometry">
            <mxPoint x="400" y="410" as="sourcePoint" />
            <mxPoint x="450" y="360" as="targetPoint" />
          </mxGeometry>
        </mxCell>
        <mxCell id="XnG07Q0Lxh_-YjqikNLF-8" value="" style="endArrow=none;html=1;rounded=0;" parent="1" source="XnG07Q0Lxh_-YjqikNLF-6" target="XnG07Q0Lxh_-YjqikNLF-1" edge="1">
          <mxGeometry width="50" height="50" relative="1" as="geometry">
            <mxPoint x="400" y="410" as="sourcePoint" />
            <mxPoint x="450" y="360" as="targetPoint" />
          </mxGeometry>
        </mxCell>
        <mxCell id="XnG07Q0Lxh_-YjqikNLF-9" value="&lt;div&gt;start&lt;/div&gt;&lt;div&gt;date&lt;/div&gt;" style="ellipse;whiteSpace=wrap;html=1;" parent="1" vertex="1">
          <mxGeometry x="450" y="20" width="90" height="60" as="geometry" />
        </mxCell>
        <mxCell id="XnG07Q0Lxh_-YjqikNLF-10" value="" style="endArrow=none;html=1;rounded=0;" parent="1" source="EiPbIUe8c82zqwenVdA4-19" target="XnG07Q0Lxh_-YjqikNLF-9" edge="1">
          <mxGeometry width="50" height="50" relative="1" as="geometry">
            <mxPoint x="620" y="31" as="sourcePoint" />
            <mxPoint x="583" y="-4" as="targetPoint" />
          </mxGeometry>
        </mxCell>
        <mxCell id="XnG07Q0Lxh_-YjqikNLF-11" value="&lt;div&gt;due&lt;/div&gt;&lt;div&gt;date&lt;br&gt;&lt;/div&gt;" style="ellipse;whiteSpace=wrap;html=1;" parent="1" vertex="1">
          <mxGeometry x="550" y="20" width="90" height="60" as="geometry" />
        </mxCell>
        <mxCell id="XnG07Q0Lxh_-YjqikNLF-12" value="" style="endArrow=none;html=1;rounded=0;" parent="1" source="EiPbIUe8c82zqwenVdA4-19" target="XnG07Q0Lxh_-YjqikNLF-11" edge="1">
          <mxGeometry width="50" height="50" relative="1" as="geometry">
            <mxPoint x="730" y="31" as="sourcePoint" />
            <mxPoint x="693" y="-4" as="targetPoint" />
          </mxGeometry>
        </mxCell>
        <mxCell id="XnG07Q0Lxh_-YjqikNLF-13" value="&lt;div&gt;assigned&lt;br&gt;&lt;/div&gt;" style="rhombus;whiteSpace=wrap;html=1;" parent="1" vertex="1">
          <mxGeometry x="170" y="190" width="60" height="60" as="geometry" />
        </mxCell>
        <mxCell id="XnG07Q0Lxh_-YjqikNLF-15" value="" style="endArrow=none;html=1;rounded=0;" parent="1" source="XnG07Q0Lxh_-YjqikNLF-13" target="EiPbIUe8c82zqwenVdA4-1" edge="1">
          <mxGeometry width="50" height="50" relative="1" as="geometry">
            <mxPoint x="400" y="270" as="sourcePoint" />
            <mxPoint x="450" y="220" as="targetPoint" />
          </mxGeometry>
        </mxCell>
        <mxCell id="XnG07Q0Lxh_-YjqikNLF-16" value="" style="endArrow=none;html=1;rounded=0;" parent="1" source="XnG07Q0Lxh_-YjqikNLF-13" target="XnG07Q0Lxh_-YjqikNLF-1" edge="1">
          <mxGeometry width="50" height="50" relative="1" as="geometry">
            <mxPoint x="400" y="270" as="sourcePoint" />
            <mxPoint x="450" y="220" as="targetPoint" />
          </mxGeometry>
        </mxCell>
        <mxCell id="XnG07Q0Lxh_-YjqikNLF-17" value="" style="endArrow=none;html=1;rounded=0;" parent="1" source="EiPbIUe8c82zqwenVdA4-60" target="EiPbIUe8c82zqwenVdA4-10" edge="1">
          <mxGeometry width="50" height="50" relative="1" as="geometry">
            <mxPoint x="400" y="330" as="sourcePoint" />
            <mxPoint x="450" y="280" as="targetPoint" />
          </mxGeometry>
        </mxCell>
        <mxCell id="XnG07Q0Lxh_-YjqikNLF-18" value="" style="endArrow=none;html=1;rounded=0;" parent="1" source="EiPbIUe8c82zqwenVdA4-60" target="EiPbIUe8c82zqwenVdA4-19" edge="1">
          <mxGeometry width="50" height="50" relative="1" as="geometry">
            <mxPoint x="400" y="330" as="sourcePoint" />
            <mxPoint x="450" y="280" as="targetPoint" />
          </mxGeometry>
        </mxCell>
        <mxCell id="XnG07Q0Lxh_-YjqikNLF-19" value="make" style="rhombus;whiteSpace=wrap;html=1;" parent="1" vertex="1">
          <mxGeometry x="340" y="320" width="60" height="60" as="geometry" />
        </mxCell>
        <mxCell id="XnG07Q0Lxh_-YjqikNLF-21" value="" style="endArrow=none;html=1;rounded=0;" parent="1" source="EiPbIUe8c82zqwenVdA4-47" target="XnG07Q0Lxh_-YjqikNLF-19" edge="1">
          <mxGeometry width="50" height="50" relative="1" as="geometry">
            <mxPoint x="350" y="420" as="sourcePoint" />
            <mxPoint x="400" y="370" as="targetPoint" />
          </mxGeometry>
        </mxCell>
        <mxCell id="XnG07Q0Lxh_-YjqikNLF-22" value="" style="endArrow=none;html=1;rounded=0;" parent="1" source="XnG07Q0Lxh_-YjqikNLF-19" target="EiPbIUe8c82zqwenVdA4-1" edge="1">
          <mxGeometry width="50" height="50" relative="1" as="geometry">
            <mxPoint x="350" y="420" as="sourcePoint" />
            <mxPoint x="400" y="370" as="targetPoint" />
          </mxGeometry>
        </mxCell>
        <mxCell id="XnG07Q0Lxh_-YjqikNLF-23" value="" style="endArrow=none;html=1;rounded=0;" parent="1" source="XnG07Q0Lxh_-YjqikNLF-19" target="EiPbIUe8c82zqwenVdA4-10" edge="1">
          <mxGeometry width="50" height="50" relative="1" as="geometry">
            <mxPoint x="350" y="420" as="sourcePoint" />
            <mxPoint x="400" y="370" as="targetPoint" />
          </mxGeometry>
        </mxCell>
        <mxCell id="XnG07Q0Lxh_-YjqikNLF-24" value="" style="endArrow=none;html=1;rounded=0;" parent="1" source="XnG07Q0Lxh_-YjqikNLF-19" target="XnG07Q0Lxh_-YjqikNLF-1" edge="1">
          <mxGeometry width="50" height="50" relative="1" as="geometry">
            <mxPoint x="350" y="420" as="sourcePoint" />
            <mxPoint x="400" y="370" as="targetPoint" />
          </mxGeometry>
        </mxCell>
        <mxCell id="-qcxalIV3YjbqEUlBUTX-1" value="bid number" style="ellipse;whiteSpace=wrap;html=1;" vertex="1" parent="1">
          <mxGeometry x="10" y="1030" width="90" height="60" as="geometry" />
        </mxCell>
        <mxCell id="-qcxalIV3YjbqEUlBUTX-2" value="" style="endArrow=none;html=1;rounded=0;" edge="1" parent="1" source="-qcxalIV3YjbqEUlBUTX-5" target="-qcxalIV3YjbqEUlBUTX-1">
          <mxGeometry width="50" height="50" relative="1" as="geometry">
            <mxPoint x="40" y="590" as="sourcePoint" />
            <mxPoint x="90" y="540" as="targetPoint" />
          </mxGeometry>
        </mxCell>
        <mxCell id="-qcxalIV3YjbqEUlBUTX-3" value="&lt;div&gt;job&lt;/div&gt;&lt;div&gt;number&lt;br&gt;&lt;/div&gt;" style="ellipse;whiteSpace=wrap;html=1;" vertex="1" parent="1">
          <mxGeometry x="110" y="1030" width="90" height="60" as="geometry" />
        </mxCell>
        <mxCell id="-qcxalIV3YjbqEUlBUTX-4" value="" style="endArrow=none;html=1;rounded=0;" edge="1" parent="1" source="-qcxalIV3YjbqEUlBUTX-3" target="-qcxalIV3YjbqEUlBUTX-5">
          <mxGeometry width="50" height="50" relative="1" as="geometry">
            <mxPoint x="-62" y="595" as="sourcePoint" />
            <mxPoint x="-142" y="506" as="targetPoint" />
          </mxGeometry>
        </mxCell>
        <mxCell id="-qcxalIV3YjbqEUlBUTX-5" value="Estimates" style="rounded=0;whiteSpace=wrap;html=1;" vertex="1" parent="1">
          <mxGeometry x="205" y="940" width="100" height="50" as="geometry" />
        </mxCell>
        <mxCell id="-qcxalIV3YjbqEUlBUTX-6" value="&lt;div&gt;job&lt;/div&gt;&lt;div&gt;name&lt;br&gt;&lt;/div&gt;" style="ellipse;whiteSpace=wrap;html=1;" vertex="1" parent="1">
          <mxGeometry x="10" y="960" width="90" height="60" as="geometry" />
        </mxCell>
        <mxCell id="-qcxalIV3YjbqEUlBUTX-7" value="id" style="ellipse;whiteSpace=wrap;html=1;" vertex="1" parent="1">
          <mxGeometry x="10" y="890" width="90" height="60" as="geometry" />
        </mxCell>
        <mxCell id="-qcxalIV3YjbqEUlBUTX-8" value="" style="endArrow=none;html=1;rounded=0;" edge="1" parent="1" source="-qcxalIV3YjbqEUlBUTX-6" target="-qcxalIV3YjbqEUlBUTX-5">
          <mxGeometry width="50" height="50" relative="1" as="geometry">
            <mxPoint x="260" y="1180" as="sourcePoint" />
            <mxPoint x="310" y="1130" as="targetPoint" />
          </mxGeometry>
        </mxCell>
        <mxCell id="-qcxalIV3YjbqEUlBUTX-9" value="" style="endArrow=none;html=1;rounded=0;" edge="1" parent="1" source="-qcxalIV3YjbqEUlBUTX-7" target="-qcxalIV3YjbqEUlBUTX-5">
          <mxGeometry width="50" height="50" relative="1" as="geometry">
            <mxPoint x="260" y="1180" as="sourcePoint" />
            <mxPoint x="310" y="1130" as="targetPoint" />
          </mxGeometry>
        </mxCell>
        <mxCell id="-qcxalIV3YjbqEUlBUTX-10" value="materials[]" style="ellipse;whiteSpace=wrap;html=1;" vertex="1" parent="1">
          <mxGeometry x="455" y="1030" width="90" height="60" as="geometry" />
        </mxCell>
        <mxCell id="-qcxalIV3YjbqEUlBUTX-11" value="" style="endArrow=none;html=1;rounded=0;" edge="1" parent="1" source="-qcxalIV3YjbqEUlBUTX-10" target="-qcxalIV3YjbqEUlBUTX-12">
          <mxGeometry width="50" height="50" relative="1" as="geometry">
            <mxPoint x="440" y="320" as="sourcePoint" />
            <mxPoint x="355" y="980" as="targetPoint" />
          </mxGeometry>
        </mxCell>
        <mxCell id="-qcxalIV3YjbqEUlBUTX-12" value="Details" style="rounded=0;whiteSpace=wrap;html=1;" vertex="1" parent="1">
          <mxGeometry x="590" y="940" width="100" height="50" as="geometry" />
        </mxCell>
        <mxCell id="-qcxalIV3YjbqEUlBUTX-13" value="" style="endArrow=none;html=1;rounded=0;" edge="1" parent="1" source="-qcxalIV3YjbqEUlBUTX-14" target="-qcxalIV3YjbqEUlBUTX-5">
          <mxGeometry width="50" height="50" relative="1" as="geometry">
            <mxPoint x="220" y="935" as="sourcePoint" />
            <mxPoint x="270" y="850" as="targetPoint" />
            <Array as="points" />
          </mxGeometry>
        </mxCell>
        <mxCell id="-qcxalIV3YjbqEUlBUTX-14" value="contains" style="rhombus;whiteSpace=wrap;html=1;" vertex="1" parent="1">
          <mxGeometry x="430" y="935" width="60" height="60" as="geometry" />
        </mxCell>
        <mxCell id="-qcxalIV3YjbqEUlBUTX-15" value="" style="endArrow=none;html=1;rounded=0;" edge="1" parent="1" target="-qcxalIV3YjbqEUlBUTX-14" source="-qcxalIV3YjbqEUlBUTX-12">
          <mxGeometry width="50" height="50" relative="1" as="geometry">
            <mxPoint x="560" y="850" as="sourcePoint" />
            <mxPoint x="490" y="925" as="targetPoint" />
          </mxGeometry>
        </mxCell>
        <mxCell id="-qcxalIV3YjbqEUlBUTX-16" value="details[]" style="ellipse;whiteSpace=wrap;html=1;" vertex="1" parent="1">
          <mxGeometry x="310" y="1030" width="90" height="60" as="geometry" />
        </mxCell>
        <mxCell id="-qcxalIV3YjbqEUlBUTX-17" value="" style="endArrow=none;html=1;rounded=0;" edge="1" parent="1" source="-qcxalIV3YjbqEUlBUTX-16" target="-qcxalIV3YjbqEUlBUTX-5">
          <mxGeometry width="50" height="50" relative="1" as="geometry">
            <mxPoint x="215" y="999" as="sourcePoint" />
            <mxPoint x="102" y="1053" as="targetPoint" />
          </mxGeometry>
        </mxCell>
        <mxCell id="-qcxalIV3YjbqEUlBUTX-18" value="&lt;div&gt;total&lt;/div&gt;&lt;div&gt;cost&lt;br&gt;&lt;/div&gt;" style="ellipse;whiteSpace=wrap;html=1;" vertex="1" parent="1">
          <mxGeometry x="550" y="1030" width="90" height="60" as="geometry" />
        </mxCell>
        <mxCell id="-qcxalIV3YjbqEUlBUTX-20" value="" style="endArrow=none;html=1;rounded=0;" edge="1" parent="1" source="-qcxalIV3YjbqEUlBUTX-18" target="-qcxalIV3YjbqEUlBUTX-12">
          <mxGeometry width="50" height="50" relative="1" as="geometry">
            <mxPoint x="583" y="1047" as="sourcePoint" />
            <mxPoint x="640" y="1000" as="targetPoint" />
          </mxGeometry>
        </mxCell>
        <mxCell id="-qcxalIV3YjbqEUlBUTX-21" value="&lt;div&gt;square&lt;/div&gt;&lt;div&gt;foot&lt;br&gt;&lt;/div&gt;" style="ellipse;whiteSpace=wrap;html=1;" vertex="1" parent="1">
          <mxGeometry x="650" y="1030" width="90" height="60" as="geometry" />
        </mxCell>
        <mxCell id="-qcxalIV3YjbqEUlBUTX-22" value="paint" style="ellipse;whiteSpace=wrap;html=1;" vertex="1" parent="1">
          <mxGeometry x="750" y="1030" width="90" height="60" as="geometry" />
        </mxCell>
        <mxCell id="-qcxalIV3YjbqEUlBUTX-23" value="" style="endArrow=none;html=1;rounded=0;" edge="1" parent="1" source="-qcxalIV3YjbqEUlBUTX-21" target="-qcxalIV3YjbqEUlBUTX-12">
          <mxGeometry width="50" height="50" relative="1" as="geometry">
            <mxPoint x="616" y="1043" as="sourcePoint" />
            <mxPoint x="650" y="1000" as="targetPoint" />
          </mxGeometry>
        </mxCell>
        <mxCell id="-qcxalIV3YjbqEUlBUTX-24" value="" style="endArrow=none;html=1;rounded=0;" edge="1" parent="1" source="-qcxalIV3YjbqEUlBUTX-22" target="-qcxalIV3YjbqEUlBUTX-12">
          <mxGeometry width="50" height="50" relative="1" as="geometry">
            <mxPoint x="626" y="1053" as="sourcePoint" />
            <mxPoint x="660" y="1010" as="targetPoint" />
          </mxGeometry>
        </mxCell>
        <mxCell id="-qcxalIV3YjbqEUlBUTX-25" value="task[]" style="ellipse;whiteSpace=wrap;html=1;" vertex="1" parent="1">
          <mxGeometry x="750" y="960" width="90" height="60" as="geometry" />
        </mxCell>
        <mxCell id="-qcxalIV3YjbqEUlBUTX-26" value="" style="endArrow=none;html=1;rounded=0;" edge="1" parent="1" source="-qcxalIV3YjbqEUlBUTX-25" target="-qcxalIV3YjbqEUlBUTX-12">
          <mxGeometry width="50" height="50" relative="1" as="geometry">
            <mxPoint x="772" y="1050" as="sourcePoint" />
            <mxPoint x="691" y="1000" as="targetPoint" />
          </mxGeometry>
        </mxCell>
      </root>
    </mxGraphModel>
  </diagram>
</mxfile>
